<?xml version="1.0" encoding="UTF-8"?>
<svg xmlns="http://www.w3.org/2000/svg" xmlns:xlink="http://www.w3.org/1999/xlink" width="180px" height="180px" viewBox="0 0 180 180" version="1.1">
<g id="surface1">
<path style=" stroke:none;fill-rule:nonzero;fill:rgb(0%,0%,0%);fill-opacity:1;" d="M 160.199219 50.398438 C 160.199219 45.933594 156.566406 42.300781 152.101562 42.300781 L 27.898438 42.300781 C 23.433594 42.300781 19.800781 45.933594 19.800781 50.398438 L 19.800781 129.601562 C 19.800781 130.84375 20.105469 132.015625 20.613281 133.070312 L 20.589844 133.09375 L 20.660156 133.164062 C 21.449219 134.761719 22.742188 136.050781 24.339844 136.839844 L 24.410156 136.910156 L 24.429688 136.886719 C 25.484375 137.394531 26.65625 137.699219 27.898438 137.699219 L 152.101562 137.699219 C 153.34375 137.699219 154.515625 137.394531 155.570312 136.886719 L 155.59375 136.910156 L 155.664062 136.839844 C 157.261719 136.050781 158.550781 134.761719 159.339844 133.164062 L 159.410156 133.09375 L 159.386719 133.070312 C 159.894531 132.015625 160.199219 130.84375 160.199219 129.601562 Z M 103.363281 93.015625 C 95.992188 100.382812 84.007812 100.378906 76.636719 93.015625 L 31.320312 47.699219 L 148.679688 47.699219 Z M 25.199219 50.398438 C 25.199219 50.050781 25.273438 49.71875 25.394531 49.410156 L 64.835938 88.847656 L 25.199219 128.480469 Z M 29.019531 132.300781 L 68.652344 92.664062 L 72.816406 96.832031 C 77.554688 101.570312 83.777344 103.9375 90 103.9375 C 96.222656 103.9375 102.445312 101.570312 107.183594 96.832031 L 111.347656 92.664062 L 150.980469 132.300781 Z M 115.164062 88.847656 L 154.605469 49.40625 C 154.726562 49.714844 154.800781 50.050781 154.800781 50.398438 L 154.800781 128.480469 Z M 115.164062 88.847656 "/>
</g>
</svg>
