<?xml version="1.0" encoding="UTF-8"?>
<svg xmlns="http://www.w3.org/2000/svg" xmlns:xlink="http://www.w3.org/1999/xlink" width="180px" height="180px" viewBox="0 0 180 180" version="1.1">
<g id="surface1">
<path style=" stroke:none;fill-rule:nonzero;fill:rgb(0%,0%,0%);fill-opacity:1;" d="M 37.972656 61.8125 C 31.425781 61.8125 26.09375 67.265625 26.09375 73.964844 C 26.09375 80.664062 31.425781 86.109375 37.972656 86.109375 C 44.515625 86.109375 49.847656 80.664062 49.847656 73.964844 C 49.847656 67.265625 44.515625 61.8125 37.972656 61.8125 Z M 37.972656 82.59375 C 33.359375 82.59375 29.609375 78.722656 29.609375 73.964844 C 29.609375 69.203125 33.359375 65.328125 37.972656 65.328125 C 42.582031 65.328125 46.332031 69.203125 46.332031 73.964844 C 46.332031 78.722656 42.582031 82.59375 37.972656 82.59375 Z M 37.972656 82.59375 "/>
<path style=" stroke:none;fill-rule:nonzero;fill:rgb(0%,0%,0%);fill-opacity:1;" d="M 61.777344 84.421875 C 63.007812 81.046875 63.519531 77.585938 63.285156 74.132812 C 62.859375 67.726562 60.140625 61.710938 55.640625 57.191406 C 50.921875 52.460938 44.652344 49.855469 37.972656 49.855469 C 31.292969 49.855469 25.023438 52.460938 20.3125 57.191406 C 15.804688 61.710938 13.085938 67.726562 12.660156 74.132812 C 12.429688 77.585938 12.9375 81.046875 14.171875 84.421875 C 15.359375 87.703125 17.300781 90.777344 19.9375 93.585938 L 36.695312 111.4375 C 37.023438 111.789062 37.484375 111.984375 37.972656 111.984375 C 38.460938 111.984375 38.921875 111.789062 39.257812 111.4375 L 56.011719 93.585938 C 58.640625 90.777344 60.582031 87.703125 61.777344 84.421875 Z M 37.972656 107.65625 L 22.5 91.179688 C 20.195312 88.726562 18.5 86.046875 17.46875 83.222656 C 16.410156 80.304688 15.96875 77.328125 16.167969 74.363281 C 16.539062 68.808594 18.890625 63.589844 22.796875 59.671875 C 26.851562 55.613281 32.234375 53.371094 37.972656 53.371094 C 43.710938 53.371094 49.101562 55.613281 53.148438 59.671875 C 57.050781 63.589844 59.410156 68.808594 59.773438 74.363281 C 59.976562 77.328125 59.539062 80.304688 58.472656 83.222656 C 57.445312 86.046875 55.753906 88.726562 53.445312 91.179688 Z M 37.972656 107.65625 "/>
<path style=" stroke:none;fill-rule:nonzero;fill:rgb(0%,0%,0%);fill-opacity:1;" d="M 165.828125 84.421875 C 167.0625 81.046875 167.570312 77.585938 167.339844 74.132812 C 166.914062 67.726562 164.195312 61.710938 159.6875 57.191406 C 154.976562 52.460938 148.707031 49.855469 142.027344 49.855469 C 135.347656 49.855469 129.070312 52.460938 124.359375 57.191406 C 119.859375 61.710938 117.140625 67.726562 116.714844 74.132812 C 116.480469 77.585938 116.992188 81.046875 118.222656 84.421875 C 119.417969 87.703125 121.359375 90.777344 123.988281 93.585938 L 140.742188 111.4375 C 141.078125 111.789062 141.539062 111.984375 142.027344 111.984375 C 142.515625 111.984375 142.976562 111.789062 143.304688 111.4375 L 160.0625 93.585938 C 162.699219 90.777344 164.632812 87.703125 165.828125 84.421875 Z M 142.027344 107.65625 L 126.554688 91.179688 C 124.246094 88.726562 122.554688 86.046875 121.527344 83.222656 C 120.460938 80.304688 120.023438 77.328125 120.226562 74.363281 C 120.589844 68.808594 122.949219 63.589844 126.851562 59.671875 C 130.898438 55.613281 136.289062 53.371094 142.027344 53.371094 C 147.765625 53.371094 153.148438 55.613281 157.203125 59.671875 C 161.109375 63.589844 163.460938 68.808594 163.832031 74.363281 C 164.035156 77.328125 163.589844 80.304688 162.53125 83.222656 C 161.5 86.046875 159.8125 88.726562 157.503906 91.179688 Z M 142.027344 107.65625 "/>
<path style=" stroke:none;fill-rule:nonzero;fill:rgb(0%,0%,0%);fill-opacity:1;" d="M 142.027344 61.8125 C 135.484375 61.8125 130.152344 67.265625 130.152344 73.964844 C 130.152344 80.664062 135.484375 86.109375 142.027344 86.109375 C 148.574219 86.109375 153.90625 80.664062 153.90625 73.964844 C 153.90625 67.265625 148.574219 61.8125 142.027344 61.8125 Z M 142.027344 82.59375 C 137.417969 82.59375 133.667969 78.722656 133.667969 73.964844 C 133.667969 69.203125 137.417969 65.328125 142.027344 65.328125 C 146.632812 65.328125 150.390625 69.203125 150.390625 73.964844 C 150.390625 78.722656 146.632812 82.59375 142.027344 82.59375 Z M 142.027344 82.59375 "/>
<path style=" stroke:none;fill-rule:nonzero;fill:rgb(0%,0%,0%);fill-opacity:1;" d="M 31.992188 123.113281 C 31.992188 126.988281 35.148438 130.144531 39.023438 130.144531 C 42.898438 130.144531 46.054688 126.988281 46.054688 123.113281 C 46.054688 119.234375 42.898438 116.082031 39.023438 116.082031 C 35.148438 116.082031 31.992188 119.234375 31.992188 123.113281 Z M 42.539062 123.113281 C 42.539062 125.046875 40.960938 126.628906 39.023438 126.628906 C 37.085938 126.628906 35.507812 125.046875 35.507812 123.113281 C 35.507812 121.171875 37.085938 119.597656 39.023438 119.597656 C 40.960938 119.597656 42.539062 121.171875 42.539062 123.113281 Z M 42.539062 123.113281 "/>
<path style=" stroke:none;fill-rule:nonzero;fill:rgb(0%,0%,0%);fill-opacity:1;" d="M 59.414062 130.144531 C 63.289062 130.144531 66.445312 126.988281 66.445312 123.113281 C 66.445312 119.234375 63.289062 116.082031 59.414062 116.082031 C 55.539062 116.082031 52.382812 119.234375 52.382812 123.113281 C 52.382812 126.988281 55.539062 130.144531 59.414062 130.144531 Z M 59.414062 119.597656 C 61.351562 119.597656 62.929688 121.171875 62.929688 123.113281 C 62.929688 125.046875 61.351562 126.628906 59.414062 126.628906 C 57.476562 126.628906 55.898438 125.046875 55.898438 123.113281 C 55.898438 121.171875 57.476562 119.597656 59.414062 119.597656 Z M 59.414062 119.597656 "/>
<path style=" stroke:none;fill-rule:nonzero;fill:rgb(0%,0%,0%);fill-opacity:1;" d="M 72.773438 123.113281 C 72.773438 126.988281 75.929688 130.144531 79.804688 130.144531 C 83.679688 130.144531 86.835938 126.988281 86.835938 123.113281 C 86.835938 119.234375 83.679688 116.082031 79.804688 116.082031 C 75.929688 116.082031 72.773438 119.234375 72.773438 123.113281 Z M 83.320312 123.113281 C 83.320312 125.046875 81.742188 126.628906 79.804688 126.628906 C 77.867188 126.628906 76.289062 125.046875 76.289062 123.113281 C 76.289062 121.171875 77.867188 119.597656 79.804688 119.597656 C 81.742188 119.597656 83.320312 121.171875 83.320312 123.113281 Z M 83.320312 123.113281 "/>
<path style=" stroke:none;fill-rule:nonzero;fill:rgb(0%,0%,0%);fill-opacity:1;" d="M 100.195312 116.082031 C 96.320312 116.082031 93.164062 119.234375 93.164062 123.113281 C 93.164062 126.988281 96.320312 130.144531 100.195312 130.144531 C 104.070312 130.144531 107.226562 126.988281 107.226562 123.113281 C 107.226562 119.234375 104.070312 116.082031 100.195312 116.082031 Z M 100.195312 126.628906 C 98.257812 126.628906 96.679688 125.046875 96.679688 123.113281 C 96.679688 121.171875 98.257812 119.597656 100.195312 119.597656 C 102.132812 119.597656 103.710938 121.171875 103.710938 123.113281 C 103.710938 125.046875 102.132812 126.628906 100.195312 126.628906 Z M 100.195312 126.628906 "/>
<path style=" stroke:none;fill-rule:nonzero;fill:rgb(0%,0%,0%);fill-opacity:1;" d="M 113.554688 123.113281 C 113.554688 126.988281 116.710938 130.144531 120.585938 130.144531 C 124.460938 130.144531 127.617188 126.988281 127.617188 123.113281 C 127.617188 119.234375 124.460938 116.082031 120.585938 116.082031 C 116.710938 116.082031 113.554688 119.234375 113.554688 123.113281 Z M 124.101562 123.113281 C 124.101562 125.046875 122.523438 126.628906 120.585938 126.628906 C 118.648438 126.628906 117.070312 125.046875 117.070312 123.113281 C 117.070312 121.171875 118.648438 119.597656 120.585938 119.597656 C 122.523438 119.597656 124.101562 121.171875 124.101562 123.113281 Z M 124.101562 123.113281 "/>
<path style=" stroke:none;fill-rule:nonzero;fill:rgb(0%,0%,0%);fill-opacity:1;" d="M 133.945312 123.113281 C 133.945312 126.988281 137.101562 130.144531 140.976562 130.144531 C 144.851562 130.144531 148.007812 126.988281 148.007812 123.113281 C 148.007812 119.234375 144.851562 116.082031 140.976562 116.082031 C 137.101562 116.082031 133.945312 119.234375 133.945312 123.113281 Z M 144.492188 123.113281 C 144.492188 125.046875 142.914062 126.628906 140.976562 126.628906 C 139.039062 126.628906 137.460938 125.046875 137.460938 123.113281 C 137.460938 121.171875 139.039062 119.597656 140.976562 119.597656 C 142.914062 119.597656 144.492188 121.171875 144.492188 123.113281 Z M 144.492188 123.113281 "/>
</g>
</svg>
