<?xml version="1.0" encoding="UTF-8"?>
<svg xmlns="http://www.w3.org/2000/svg" xmlns:xlink="http://www.w3.org/1999/xlink" width="180px" height="180px" viewBox="0 0 180 180" version="1.1">
<g id="surface1">
<path style=" stroke:none;fill-rule:nonzero;fill:rgb(13.72549%,12.156863%,12.54902%);fill-opacity:1;" d="M 150.101562 89.550781 C 151.324219 89.550781 152.40625 88.761719 152.78125 87.597656 C 153.15625 86.429688 152.734375 85.160156 151.738281 84.449219 L 138.308594 74.859375 C 139.132812 71.117188 139.644531 67.308594 139.84375 63.480469 C 139.871094 62.691406 139.894531 61.933594 139.894531 61.144531 C 139.894531 33.589844 117.554688 11.25 90 11.25 C 62.445312 11.25 40.105469 33.589844 40.105469 61.144531 C 40.105469 61.933594 40.128906 62.691406 40.164062 63.699219 C 40.371094 67.453125 40.878906 71.1875 41.6875 74.859375 L 28.261719 84.449219 C 27 85.351562 26.703125 87.105469 27.605469 88.371094 C 28.511719 89.636719 30.265625 89.933594 31.53125 89.027344 L 90 47.277344 L 148.46875 89.027344 C 148.941406 89.371094 149.515625 89.550781 150.101562 89.550781 Z M 122.511719 63.578125 L 117.085938 59.703125 L 117.085938 48.109375 L 122.511719 48.109375 Z M 134.214844 63.425781 C 134.058594 66.050781 133.734375 68.664062 133.25 71.246094 L 128.136719 67.597656 L 128.136719 45.296875 C 128.136719 43.742188 126.878906 42.484375 125.324219 42.484375 L 114.273438 42.484375 C 112.71875 42.484375 111.460938 43.742188 111.460938 45.296875 L 111.460938 55.6875 L 91.632812 41.53125 C 90.65625 40.832031 89.34375 40.832031 88.367188 41.53125 L 46.753906 71.246094 C 46.257812 68.617188 45.933594 65.960938 45.78125 63.292969 C 45.753906 62.570312 45.730469 61.867188 45.730469 61.144531 C 45.730469 36.695312 65.550781 16.875 90 16.875 C 114.449219 16.875 134.269531 36.695312 134.269531 61.144531 C 134.269531 61.867188 134.246094 62.570312 134.214844 63.425781 Z M 134.214844 63.425781 "/>
<path style=" stroke:none;fill-rule:nonzero;fill:rgb(13.72549%,12.156863%,12.54902%);fill-opacity:1;" d="M 105.015625 100.601562 C 106.566406 100.601562 107.828125 99.34375 107.828125 97.789062 L 107.828125 73.351562 C 107.828125 71.800781 106.566406 70.539062 105.015625 70.539062 L 74.984375 70.539062 C 73.433594 70.539062 72.171875 71.800781 72.171875 73.351562 L 72.171875 97.789062 C 72.171875 99.34375 73.433594 100.601562 74.984375 100.601562 Z M 77.796875 76.164062 L 102.203125 76.164062 L 102.203125 94.976562 L 77.796875 94.976562 Z M 77.796875 76.164062 "/>
<path style=" stroke:none;fill-rule:nonzero;fill:rgb(13.72549%,12.156863%,12.54902%);fill-opacity:1;" d="M 47.382812 84.753906 C 45.929688 85.300781 45.195312 86.921875 45.746094 88.375 C 54.710938 112.152344 72.378906 135.042969 82.117188 146.582031 C 84.082031 148.902344 86.96875 150.230469 90.003906 150.230469 C 93.042969 150.226562 95.925781 148.890625 97.886719 146.574219 C 107.621094 135.042969 125.289062 112.152344 134.253906 88.375 C 134.613281 87.4375 134.441406 86.375 133.808594 85.597656 C 133.167969 84.816406 132.160156 84.4375 131.167969 84.601562 C 130.175781 84.765625 129.347656 85.449219 128.992188 86.390625 C 120.324219 109.375 103.089844 131.691406 93.59375 142.9375 C 92.671875 143.949219 91.371094 144.523438 90.003906 144.527344 C 88.636719 144.527344 87.335938 143.953125 86.410156 142.941406 C 76.910156 131.691406 59.675781 109.375 51.007812 86.390625 C 50.746094 85.691406 50.214844 85.128906 49.535156 84.816406 C 48.855469 84.511719 48.082031 84.488281 47.382812 84.753906 Z M 47.382812 84.753906 "/>
<path style=" stroke:none;fill-rule:nonzero;fill:rgb(13.72549%,12.156863%,12.54902%);fill-opacity:1;" d="M 90 168.75 C 115.4375 168.75 135.367188 159.378906 135.367188 147.414062 C 135.367188 140.609375 129.34375 134.632812 118.410156 130.582031 C 116.953125 130.042969 115.339844 130.789062 114.796875 132.246094 C 114.253906 133.703125 115.003906 135.320312 116.464844 135.859375 C 124.777344 138.9375 129.742188 143.257812 129.742188 147.414062 C 129.742188 154.84375 113.421875 163.125 90 163.125 C 66.578125 163.125 50.257812 154.84375 50.257812 147.414062 C 50.257812 143.257812 55.222656 138.9375 63.535156 135.859375 C 64.996094 135.320312 65.746094 133.703125 65.203125 132.246094 C 64.660156 130.789062 63.046875 130.042969 61.589844 130.582031 C 50.65625 134.632812 44.632812 140.609375 44.632812 147.414062 C 44.632812 159.378906 64.5625 168.75 90 168.75 Z M 90 168.75 "/>
</g>
</svg>
